<svg width="130" height="110" viewBox="0 0 106 121" xmlns="http://www.w3.org/2000/svg"><path d="M106.4,126.5c2.9-1.7-1.4-5.7-2.6-8.3-1.9-4.5-5.5-10.2-7.8-14.7-1.7-3.2-.8-6.8-4.6-6.4,0,0-5.5,1.7-7.6,2.1-2.1.6-9.1,6-11.6,7-3.1,1.1-6.5.4-9.7.4-.9,0-9.5-3.8-9.7-4-1.9-1.5-14.3-4.7-14.7-3.6s-9.8,22.4-11,27.6h79.3Z" transform="translate(-11.1 -5.9)" fill="#cf4927"/><path d="M65.2,126.5h41.1a57.17,57.17,0,0,0-2.8-8.7c-1.9-4-9.8-20-9.8-20l-28.2,4.7-.3,24Zm-27,0h.9c3.1-1.4,6.5-1.7,9.8-2.7a25.29,25.29,0,0,0-.1,2.8h1.8a16.68,16.68,0,0,1,.3-3.8,1,1,0,0,0-1.5-1.1c-3.3,1.3-6.7,1.6-10,2.8.6-8,5.9-15.1,12.1-19.9,1.5-1.1.6-3-.6-2.1-7.4,5.5-13.1,13.8-13.3,23.2,0,.3.3.6.6.8Zm23,0c-.3-.6-1.1-1-1.6-.4-.1.1-.2.3-.3.4h1.9Z" transform="translate(-11.1 -5.9)" fill="#f16529"/><path d="M64.9,117.2s9.9-.8,11.8-3c9.1-10.9,17.9-13.6,17.9-13.6l-1.3-2.8-28.6,5.7L38.4,98v3s6.9,2.4,16.2,13.4c1.9,2.3,10.1,2.8,10.3,2.8" transform="translate(-11.1 -5.9)" fill="#a1371a" opacity="0.5" style="isolation:isolate"/><path d="M106.8,58.7c-.2,10.2-1.5,20.7-6.7,29.6-2.3,4-3.2,7-6.9,9.8-3.1,2.3-9.9.9-14.9,5.1,0,0-6.9,6-12.8,5.7-5.7-.4-11.4-5.3-11.4-5.3-2.9-2.8-9.7-3.4-13.9-4.9-5-1.9-12.8-17.5-13.3-20.3l-1.3-5.3c-1.7-4.1-2.1-8.7-4.2-12.8A25.42,25.42,0,0,1,18.2,53c-1.2-5.7-2.5-11.5-3.4-17.1-1.7-8.5-5.1-22.2.4-29.4h.6C21.3,4.8,29.3,14,32.6,17c5.3,4.9,10.7,14.1,17.3,16.8a28.46,28.46,0,0,0,3.6-4.7c1.5,1.3,4.4,3,6.7,2.6,1.5,0,2.7-1.5,3.8-1.5.9,0,2.5.9,2.9.9,4,1.7,3.8-1.9,6.1-1.7,2.3,0,2.3,4.5,7.2,1.7l2.5-.2C89,24.1,101.5,6.8,112.2,9.3c9.5,2.4-1.7,40.3-5,49.5" transform="translate(-11.1 -5.9)" fill="#f16529"/><path d="M116.5,13.5c-1.9-8.1-11-5.1-16-1.7A63.25,63.25,0,0,0,88.9,22.7c-1.5,1.7-3.1,3.6-4.8,5.5l-1.9,2.3c.2-.2-1.3.2-1.9.2-1.3.2-2.3,1.3-3.6.8a7.73,7.73,0,0,1-1.9-1.7,3.3,3.3,0,0,0-4,0c-.9.9-1.5,1.7-3.1,1.3a29.22,29.22,0,0,0-3.4-1.3c-1.1-.2-2.1.6-2.9.9-2.3,1.5-5.3-.6-7-1.9a1.15,1.15,0,0,0-1.7.2,27,27,0,0,1-2.9,4c-5.1-2.6-8.8-7.5-12.2-11.9A103,103,0,0,0,27.1,10.7a22.69,22.69,0,0,0-5.9-4,12.55,12.55,0,0,0-5.7-.8c-1.7,0-2.5,2.6-3.1,4A24.55,24.55,0,0,0,11.1,18c0,5.7,1.2,11.3,2.3,17,.8,3.4,1.2,7,1.9,10.4.8,3.8,1.2,7.7,2.7,11.3s3.4,6.8,4.6,10.5c.8,2.6,1.7,5.3,2.3,7.9A45.82,45.82,0,0,0,27.6,83c2.5,5.1,5.3,10.4,9.1,14.5,3.6,4,9.7,3.2,14.3,5.5,4.4,3.2,9.1,6.4,14.5,7.2,5.5.6,10.7-3.4,15.2-7,3.6-1.7,7.6-1.7,11.4-3s5.9-5.7,7.6-8.9a57,57,0,0,0,6.1-14.9,79.69,79.69,0,0,0,1.9-16.2l.4-.4a167.41,167.41,0,0,0,6.3-22c1.7-8.1,3.8-16.8,2.1-24.3Zm-1.9,10a107.37,107.37,0,0,1-2.3,13.8,177.47,177.47,0,0,1-5.7,20.5c-.4.2-.8.4-.8.9a94.24,94.24,0,0,1-1.7,15.8A56.88,56.88,0,0,1,98.4,89c-1.9,3.6-3.8,7.9-8.2,9a41.13,41.13,0,0,1-5.5,1.1.93.93,0,0,0-1.5-.8c-1.7,1.1-5.5,4-5.5,4.1-3.6,2.6-7.6,5.1-12,4.9-3.2-.2-6.5-2.1-9-3.8-.8-.4-3.1-2.3-3.4-2.4l-4.4-3.2c-.8-.6-1.5.2-1.5,1.1-1.5-.4-2.9-.6-4.2-.9-4-.9-6.1-4-8.4-7.3A58.61,58.61,0,0,1,27,73.3c-.6-2.1-1.3-4.1-1.9-6.4a30.87,30.87,0,0,0-3.4-8.7C19.8,55,19.2,51.6,18.5,48c-.8-3.4-1.5-7-2.1-10.5-.9-5.3-2.1-10.4-2.7-15.8-.4-4.7-.4-10,2.3-14.1a11.07,11.07,0,0,1,3.6.2A15.15,15.15,0,0,1,24.7,11a96.19,96.19,0,0,1,7.4,6.8C37.8,22.9,43.7,34,50.2,35.1A20.62,20.62,0,0,0,54,30.6a12.22,12.22,0,0,0,5.5,2.3,4.3,4.3,0,0,0,3.1-.8c1.7-.9,2.1-.8,3.8.2a4.07,4.07,0,0,0,4.6-.2c.6-.4,1.2-1.3,1.9-1.3s1.5,1.3,1.9,1.5a5,5,0,0,0,4.4.8c.9-.2,1.3-.6,2.3-.8a3,3,0,0,0,1.9-.4c3.2-3.6,6.3-7.3,9.5-10.7,3.6-4,7.8-7.9,12.9-10,3.1-1.3,7-1.7,8.4,1.9,1.2,3.2.8,7,.4,10.4Z" transform="translate(-11.1 -5.9)" fill="#2c363e"/><path d="M93.5,60.4a5,5,0,0,0-3.8-3.6c-1.5-.4-3.1,0-4.4-.2.2-1.3,1.2-5.5-1.7-5.1-1.5,0-3.1,4.5-4,5.7-1.5,2.3-2.5,1.7-2.7-.9-.4-2.6.9-6.2-1.2-6.8-1.5-.2-2.7,2.8-3.2,4.7-.2.9-1.2,1.7-.8-4.9,0-1.7,0-6.2-.9-6.4h-.4c-2.7.2-4.6,10.7-5.3,13.8-.6-3-3.6-15.8-5.9-13-.6,1.7-.2,2.4-.4,4.1,0,.9-.2,7.3-.9,6.2-.4-1.9-2.5-5.7-3.6-5.1-2.1,1.9-.4,4.5-.9,7.2s-1.3,3.2-2.7.8c-.8-1.1-2.1-5.7-3.6-5.8-2.7-.4-1.9,3.8-1.9,5.1a31,31,0,0,0-4.4-.2,5.3,5.3,0,0,0-4,3.4c-.2.4,0,14.5,12.6,14.7a12.85,12.85,0,0,0,5.3-.9c1.2-.4,2.1-1.3,3.1-.6l12.9.9a2.83,2.83,0,0,1,2.9-.9c1.7.8,4.2,2.1,6.3,2.1,6.5,0,12.2-2.6,14.1-8.7.4-.4-.3-5.3-.5-5.6Z" transform="translate(-11.1 -5.9)" fill="#efa65b"/><path d="M40.9,62.4s8-.8,10.1.4c4.2,2.1,4.8,6.8,4.8,6.2a19,19,0,0,1-3.2.9,33.66,33.66,0,0,1-4,.4c-6.6-.7-7.7-7.9-7.7-7.9Z" transform="translate(-11.1 -5.9)" fill="#fff"/><path d="M49.1,70.3h-.6a8.18,8.18,0,0,1-6.3-4.1,9.87,9.87,0,0,1-1.5-3.8v-.2h.2S43.6,62,46,62a14.12,14.12,0,0,1,5,.6c4,1.9,5,6.2,4.8,6.4v.2h-.2a18.12,18.12,0,0,1-3.1.9C51.4,70.2,50,70.3,49.1,70.3Zm-8.2-7.9c.2,1.1,1.9,7,7.4,7.5h.6a22.27,22.27,0,0,0,3.4-.4l3.1-.9a9.33,9.33,0,0,0-4.6-6c-.8-.4-2.3-.6-4.8-.6-2.2.2-4.3.4-5.1.4Z" transform="translate(-11.1 -5.9)" fill="#fff"/><path d="M47.6,62.1s-.9,6,.9,5.7,1.9-5.5,1.9-5.5l-2.8-.2Z" transform="translate(-11.1 -5.9)" fill="#2c363e"/><path d="M48.3,68.1c-.2,0-.4-.2-.6-.4-.9-1.1-.4-5.5-.4-5.7v-.2l3.1.2v.2c.2.4.2,5.5-2.1,5.9C48.5,67.9,48.5,68.1,48.3,68.1Zm-.6-5.9c-.2,1.3-.4,4.3.2,5.3.2.2.2.2.4.2h.2c1.3-.2,1.7-3.6,1.7-5.1l-2.5-.4Zm43.1,1.4s-7.8-1.1-10.1-.2c-4.4,1.9-5.1,6.6-5.1,6,0,0,2.5.9,3.1,1.1a12.48,12.48,0,0,0,4,.6C89.3,70.7,90.8,63.6,90.8,63.6Z" transform="translate(-11.1 -5.9)" fill="#fff"/><path d="M82.4,71.3a12.19,12.19,0,0,1-3.4-.6c-.6-.2-2.5-.9-3.1-1.1h-.2v-.4a9,9,0,0,1,5.1-5.8,10.52,10.52,0,0,1,3.1-.4,57.74,57.74,0,0,1,7,.6h.2v.2a10,10,0,0,1-1.7,3.6,8.54,8.54,0,0,1-6.5,4c-.3-.3-.5-.1-.5-.1Zm-6.5-2.1c.6.2,2.5.9,3.1,1.1a13.49,13.49,0,0,0,3.4.6h.4c5.7-.2,7.6-6.2,7.8-7.2a41.56,41.56,0,0,0-6.7-.6,10,10,0,0,0-3.1.4A9.46,9.46,0,0,0,75.9,69.2Z" transform="translate(-11.1 -5.9)" fill="#fff"/><path d="M83.9,63s.6,6-1.2,5.7S81,63.2,81,63.2Z" transform="translate(-11.1 -5.9)" fill="#2c363e"/><path d="M83,68.8h-.2c-1.9-.4-1.7-5.5-1.7-5.7V63l3.1-.2V63c0,.2.4,4.5-.6,5.5-.2.1-.4.3-.6.3Zm-1.7-5.4c0,1.5.2,4.9,1.5,5.3a.73.73,0,0,0,.6-.2c.8-.9.6-4.3.6-5.1H81.3Z" transform="translate(-11.1 -5.9)" fill="#fff"/><path d="M59,82.6c-.6-3,.2-6,.8-9,0,0,1.9-6.4,5-7,7.8-1.5,8.6,16.2,8.6,16.2-9.3,4.1-14.4-.2-14.4-.2Z" transform="translate(-11.1 -5.9)" fill="#f16529"/><path d="M86.4,84.8c-.6-1.3-2.9-2.4-4.6-2.6-3.6-.4-16,2.4-16,2.4v.1c-1.6-.4-12.6-3.5-16-3.2-1.7.2-4.2,1.1-4.8,2.4-.9,1.9.2,4.3,1.2,6.4a20.35,20.35,0,0,0,6.5,7.3,5.94,5.94,0,0,0,3.4,1.1c9.5.2,10.1-5.6,10.1-5.4l.2-1c.4,0-.8,6,8.6,6,1.2,0,2.3.4,3.4-.2a21.64,21.64,0,0,0,6.7-7.2c1-1.7,2.3-4,1.3-6.1Z" transform="translate(-11.1 -5.9)" fill="#efa65b"/><path d="M58.4,99.4a.86.86,0,0,1-.8-.8.73.73,0,0,1,.8-.8c6.9-.6,7.4-4.7,7.6-4.9,0-.4.4-.8.8-.6a.86.86,0,0,1,.8.8c0,.2,0,4.1,7.2,4.3a.8.8,0,1,1,0,1.6c-3.6,0-6.1-1.1-7.6-3a1.52,1.52,0,0,1-.4-.8c-1.3,1.7-3.6,3.8-8.4,4.2Z" transform="translate(-11.1 -5.9)" fill="#2c363e"/><path d="M58.8,83c.4-1.1,7.6.2,7.6.2s6.3-1.5,7.2.2c.2.4-.8,1.7-.8,1.7s-2.7-.2-3.2.4c-.8.8-1.2,4.3-.9,4.3s-1.3,1.9-2.1,1.9c-.6,0-2.3-1.3-2.1-1.5s-.2-4-1.2-4.7c-.6-.6-2.7.2-3.4-.2C59.6,84.7,58.8,83,58.8,83Z" transform="translate(-11.1 -5.9)" fill="#cf4927"/><path d="M73.5,83.5c.2.4-.8,1.7-.8,1.7s-2.7-.2-3.2.4c-.8.8-1.2,4.3-.9,4.3s-1.3,1.9-2.1,1.9c-.6,0-2.3-1.3-2.1-1.5s-.2-4-1.2-4.7c-.6-.6-2.7.2-3.4-.2-.6-.2-1.2-1.9-1.2-1.9" transform="translate(-11.1 -5.9)" fill="#cf4927"/><path d="M66.4,92.6c-.9,0-3.1-2.4-2.9-2.6a12.93,12.93,0,0,0-.8-4H61.4c-.8,0-1.5.2-1.9-.2A4.22,4.22,0,0,1,58,83.5a.7.7,0,0,1,1.3-.5,2.89,2.89,0,0,0,.9,1.5h1.2c.9,0,1.7-.2,2.3.4,1.2.9,1.3,4.1,1.3,4.3V90a3.4,3.4,0,0,0,1.3.9,8,8,0,0,0,1.3-1.3,8.44,8.44,0,0,1,.2-1.9c.4-2.1.9-2.6,1.2-2.8.6-.6,2.3-.6,3.4-.6.2-.4.4-.6.4-.8,0-.4,0-.6.4-.8s.8-.2.9.2c.2.2.6.9-.9,2.6-.2.2-.4.4-.6.2a8.34,8.34,0,0,0-2.7.2,8.51,8.51,0,0,0-.8,3.4v.4c0,.6-1.5,2.7-2.7,2.9Z" transform="translate(-11.1 -5.9)" fill="#2c363e"/><path d="M48.3,70.9c-6.9-.8-8.4-8.5-8.4-8.5v-.8h.8c.2,0,2.7-.2,5.3-.2a14,14,0,0,1,5.1.6c5.1,1.9,5.1,7.7,5.1,7.7s-3.1.8-3.6.9a25,25,0,0,1-4.3.3ZM41.8,63A8.53,8.53,0,0,0,43,65.6a6.93,6.93,0,0,0,5.7,3.8,11.38,11.38,0,0,0,3.6-.4,11.18,11.18,0,0,0,2.5-.8,8.86,8.86,0,0,0-4.2-5.1c-.4-.2-1.5-.6-4.4-.6a32.49,32.49,0,0,1-4.4.5Zm40.6,8.8a14.79,14.79,0,0,1-3.6-.6l-3.6-1.1.2-1.9a10.35,10.35,0,0,1,5.3-5.7,12.45,12.45,0,0,1,3.4-.4,57.74,57.74,0,0,1,7,.6l.8.2-.2.8s-1.9,7.7-8.8,8.1h-.5Zm-5.7-3a20.31,20.31,0,0,0,2.3.9,12.27,12.27,0,0,0,3.2.6c.2,0,5.1-.6,6.3-3.6.4-1.1,1.2-1.9,1.3-2.6a45.55,45.55,0,0,0-5.9-.4,6.9,6.9,0,0,0-2.9.4,8.71,8.71,0,0,0-4.3,4.7Z" transform="translate(-11.1 -5.9)" fill="#2c363e"/><path d="M31.6,73.9a12.69,12.69,0,0,0,6.1,6.8c1.9,1.1,3.6-1.9,1.7-3A9.57,9.57,0,0,1,35,73c-.8-2.1-4.2-1.2-3.4.9Zm62.3,6.8c2.1-1.5,4.4-2.8,5.7-5.3,1.2-1.9-1.9-3.8-3.1-1.7-.9,1.7-2.9,2.8-4.6,4a1.69,1.69,0,0,0-.6,2.4,1.93,1.93,0,0,0,2.6.6Z" transform="translate(-11.1 -5.9)" fill="#efa65b"/><path d="M38.6,97.8c-3.4,11.1-10.5,17.5-11.8,29" transform="translate(-11.1 -5.9)" fill="#f16529"/><path d="M37.5,97.7c-3.2,10.2-10.4,17.4-11.7,28.2a1.05,1.05,0,1,0,2.1,0c1.3-10.5,8.7-17.8,11.7-27.6A1.09,1.09,0,0,0,37.5,97.7Z" transform="translate(-11.1 -5.9)" fill="#2c363e"/><path d="M92.7,98.8c4,9.2,10.1,17.3,12.6,27.1.4,1.3,2.8.7,2.6-.6-2.5-10-9.3-18.2-13.4-27.6C94,96.5,92.1,97.4,92.7,98.8Z" transform="translate(-11.1 -5.9)" fill="#2c363e"/><path d="M24.7,59c3.2-3,5.1-9.6,5.9-14.9-.2.8,5.5.9,8.8-2.6,2.3-2.4.9-4.3-.4-7.3-3.6-7.7-9.7-13.8-15.6-19.4-1.5-1.5-3.1-5.3-5.7-4.3-2.1.8-1.9,7-1.5,8.9C18.4,35.5,24.7,59,24.7,59Zm79.1-1.7A27.11,27.11,0,0,1,96.9,43c0,.8-5.5.8-8.6-2.8-2.1-2.4-.8-4.1.8-6.8,4-7,10.3-12.4,16.4-17.7,1.7-1.3,3.4-3.2,5.9-2.1,2.1.9,1.5,5.1,1.2,6.8A352.44,352.44,0,0,1,103.8,57.3Z" transform="translate(-11.1 -5.9)" fill="#fff"/><path d="M104.1,32.9c-4.2,1.1-8.8,3.6-10.8,7.6-.9-4.8,3.5-10.1,7.2-12.7a1.13,1.13,0,0,0-1.2-1.9c-4.6,3.4-9.3,9.8-8,15.6a1.1,1.1,0,0,0,1.3.7l-.2.6c-.2,1.3,1.9,1.9,2.1.6.9-4.7,5.7-7.3,10.1-8.5a1,1,0,1,0-.5-2ZM27.7,27.8c-1.2-.8-2.1.9-1.2,1.9,3,2.2,6.7,6.6,7.2,10.8-2-4-6.4-6.5-10.8-7.6-1.3-.4-1.9,1.7-.6,2.1,4.4,1.1,9.1,3.8,10.1,8.5a1.15,1.15,0,0,0,1.7.6,1.09,1.09,0,0,0,1.6-.6c1.6-5.9-3.4-12.5-8-15.7Z" transform="translate(-11.1 -5.9)" fill="#f16529"/><path d="M38.2,31C35,25.3,30.4,20.6,25.8,16.1l-5-5.7a3,3,0,0,0-4-.2c-2.5,2.3-1.9,7.2-1.5,10.2.8,5.8,1.9,11.5,3.2,17.1q2.25,10.95,5.1,21.6a.64.64,0,0,0,.6.6c.2.2.6,0,.9-.2,3.6-3.6,5.1-9,5.9-14.1,2.3.4,6.1-1.3,7-1.9C43.8,40.4,40.7,35.1,38.2,31ZM36.9,42.7a8.69,8.69,0,0,1-3.2,1.1c-.4,0-2.1,0-2.1.2a.89.89,0,0,0-1.7,0c-.8,4.5-1.9,9.6-4.8,13.2a363.89,363.89,0,0,1-8-37.3c-.4-2.1-.6-11.3,3.2-7.3l3.6,4.3c1.7,1.7,3.4,3.6,5.1,5.3A51.91,51.91,0,0,1,38,35a8.66,8.66,0,0,1,1.3,3.2c1,1.8-.9,3.5-2.4,4.5Zm72.4-30.4c-1.7.2-3.2,1.5-4.4,2.6-2.3,2.1-4.6,4-6.9,6A60.4,60.4,0,0,0,87.5,34.1c-2.3,4-.4,7.2,3.6,9a11.7,11.7,0,0,0,5.1,1.1,26.42,26.42,0,0,0,6.9,13.6,1.64,1.64,0,0,0,.9.2q.3,0,.6-.6c2.1-6.8,3.8-13.8,5.5-20.7a174.33,174.33,0,0,0,3.4-17.5c.4-3.1.2-7-4.2-6.9Zm2.5,6.6c-.8,8.5-3.2,17.1-5.3,25.4-.9,3.8-1.9,7.5-3.1,11.1a25.28,25.28,0,0,1-5.7-12.8.89.89,0,0,0-1.7,0c.2-.6.4-.4-.4-.2a9.26,9.26,0,0,1-2.3-.4c-2.1-.6-5.1-2.1-5.3-4.5-.2-1.7,1.7-4,2.7-5.5a51.91,51.91,0,0,1,4.4-5.8,124.64,124.64,0,0,1,9.1-8.7,31.86,31.86,0,0,1,4.4-3.4c3.4-1.8,3.4,3,3.2,4.8Z" transform="translate(-11.1 -5.9)" fill="#2c363e"/></svg>