<svg width="580" height="140" viewBox="0 0 580 140" xmlns="http://www.w3.org/2000/svg"><path d="M495.24,87.3l41.3,26.5-40.3,23.4-41.4-25.5Zm40.4-35.4,39.8,25.6-38.9,22.6-39.8-24.7Z" transform="translate(-5.04 -5.9)" fill="#f2f2f2" opacity="0.7" style="isolation:isolate"/><path d="M499.54,41.3l63.7,40.8L501,118.2l-63.7-39.4Z" transform="translate(-5.04 -5.9)" fill="#f2f2f2" opacity="0.5" style="isolation:isolate"/><path d="M462.54,36.6l38,24.4-37.1,21.5-38-23.4Z" transform="translate(-5.04 -5.9)" fill="#e94e1b"/><path d="M56.94,52.2l70.4,42.7-52,30.5L5,83.4Z" transform="translate(-5.04 -5.9)" fill="#f2f2f2" opacity="0.5" style="isolation:isolate"/><path d="M109.24,69.5l19.6,12.2-51.9,30.5-19.6-11.5Z" transform="translate(-5.04 -5.9)" fill="#f2f2f2" opacity="0.7" style="isolation:isolate"/><path d="M58.74,37l45.1,28.2L51.94,95.7,6.84,68.2" transform="translate(-5.04 -5.9)" fill="#e94e1b"/></svg>